<svg width="285" height="70" viewBox="0 0 285 70" fill="none" xmlns="http://www.w3.org/2000/svg">
<g filter="url(#filter0_d_2193_1701)">
<rect x="3" y="2.57861" width="279" height="63" rx="20" fill="#FAFAFA"/>
<rect x="2.5" y="2.07861" width="280" height="64" rx="20.5" stroke="#D6D6D6"/>
<rect x="12" y="21.0786" width="26" height="26" rx="2" fill="white"/>
<rect x="12" y="21.0786" width="26" height="26" rx="2" stroke="#C1C1C1" stroke-width="2"/>
<path d="M53.8438 29.1255V39.0786H52.1279V29.1255H53.8438ZM57.3779 28.5786V29.5425C57.3779 29.8296 57.3255 30.1281 57.2207 30.438C57.1204 30.7433 56.9792 31.0373 56.7969 31.3198C56.6146 31.5978 56.4049 31.8394 56.168 32.0444L55.3408 31.5249C55.5277 31.2424 55.6781 30.9438 55.792 30.6294C55.9105 30.3104 55.9697 29.9526 55.9697 29.5562V28.5786H57.3779ZM60.3447 33.186V39.0786H58.6973V31.6821H60.249L60.3447 33.186ZM60.0781 35.1069L59.5176 35.1001C59.5176 34.5897 59.5814 34.118 59.709 33.6851C59.8366 33.2521 60.0234 32.8761 60.2695 32.5571C60.5156 32.2336 60.821 31.9852 61.1855 31.812C61.5547 31.6343 61.9808 31.5454 62.4639 31.5454C62.8011 31.5454 63.1087 31.5955 63.3867 31.6958C63.6693 31.7915 63.9131 31.9442 64.1182 32.1538C64.3278 32.3634 64.4873 32.6323 64.5967 32.9604C64.7106 33.2886 64.7676 33.6851 64.7676 34.1499V39.0786H63.1201V34.2935C63.1201 33.9334 63.0654 33.6509 62.9561 33.4458C62.8512 33.2407 62.6986 33.0949 62.498 33.0083C62.3021 32.9172 62.0674 32.8716 61.7939 32.8716C61.484 32.8716 61.2197 32.9308 61.001 33.0493C60.7868 33.1678 60.6113 33.3296 60.4746 33.5347C60.3379 33.7397 60.2376 33.9767 60.1738 34.2456C60.11 34.5145 60.0781 34.8016 60.0781 35.1069ZM64.665 34.6694L63.8926 34.8403C63.8926 34.3937 63.9541 33.9722 64.0771 33.5757C64.2048 33.1746 64.3893 32.8237 64.6309 32.5229C64.877 32.2176 65.18 31.9784 65.54 31.8052C65.9001 31.632 66.3125 31.5454 66.7773 31.5454C67.1556 31.5454 67.4928 31.5978 67.7891 31.7026C68.0898 31.8029 68.3451 31.9624 68.5547 32.1812C68.7643 32.3999 68.9238 32.6847 69.0332 33.0356C69.1426 33.382 69.1973 33.8013 69.1973 34.2935V39.0786H67.543V34.2866C67.543 33.9129 67.4883 33.6235 67.3789 33.4185C67.2741 33.2134 67.1237 33.0721 66.9277 32.9946C66.7318 32.9126 66.4971 32.8716 66.2236 32.8716C65.9684 32.8716 65.7428 32.9194 65.5469 33.0151C65.3555 33.1063 65.1937 33.2362 65.0615 33.4048C64.9294 33.5688 64.8291 33.758 64.7607 33.9722C64.6969 34.1864 64.665 34.4188 64.665 34.6694ZM76.0127 33.2612V39.0786H74.3652V31.6821H75.917L76.0127 33.2612ZM75.7188 35.1069L75.1855 35.1001C75.1901 34.576 75.263 34.0952 75.4043 33.6577C75.5501 33.2202 75.7507 32.8442 76.0059 32.5298C76.2656 32.2153 76.5755 31.9738 76.9355 31.8052C77.2956 31.632 77.6966 31.5454 78.1387 31.5454C78.4941 31.5454 78.8154 31.5955 79.1025 31.6958C79.3942 31.7915 79.6426 31.9487 79.8477 32.1675C80.0573 32.3862 80.2168 32.6711 80.3262 33.022C80.4355 33.3683 80.4902 33.7944 80.4902 34.3003V39.0786H78.8359V34.2935C78.8359 33.938 78.7835 33.6577 78.6787 33.4526C78.5785 33.243 78.4303 33.0949 78.2344 33.0083C78.043 32.9172 77.8037 32.8716 77.5166 32.8716C77.234 32.8716 76.9811 32.9308 76.7578 33.0493C76.5345 33.1678 76.3454 33.3296 76.1904 33.5347C76.04 33.7397 75.9238 33.9767 75.8418 34.2456C75.7598 34.5145 75.7188 34.8016 75.7188 35.1069ZM81.8574 35.4624V35.3052C81.8574 34.772 81.9349 34.2775 82.0898 33.8218C82.2448 33.3615 82.4681 32.9627 82.7598 32.6255C83.056 32.2837 83.416 32.0194 83.8398 31.8325C84.2682 31.6411 84.7513 31.5454 85.2891 31.5454C85.8314 31.5454 86.3145 31.6411 86.7383 31.8325C87.1667 32.0194 87.529 32.2837 87.8252 32.6255C88.1214 32.9627 88.347 33.3615 88.502 33.8218C88.6569 34.2775 88.7344 34.772 88.7344 35.3052V35.4624C88.7344 35.9956 88.6569 36.4901 88.502 36.9458C88.347 37.4015 88.1214 37.8003 87.8252 38.1421C87.529 38.4793 87.1689 38.7437 86.7451 38.9351C86.3213 39.1219 85.8405 39.2153 85.3027 39.2153C84.7604 39.2153 84.2751 39.1219 83.8467 38.9351C83.4229 38.7437 83.0628 38.4793 82.7666 38.1421C82.4704 37.8003 82.2448 37.4015 82.0898 36.9458C81.9349 36.4901 81.8574 35.9956 81.8574 35.4624ZM83.5049 35.3052V35.4624C83.5049 35.7951 83.5391 36.1095 83.6074 36.4058C83.6758 36.702 83.7829 36.9618 83.9287 37.1851C84.0745 37.4084 84.2614 37.5838 84.4893 37.7114C84.7171 37.839 84.9883 37.9028 85.3027 37.9028C85.6081 37.9028 85.8724 37.839 86.0957 37.7114C86.3236 37.5838 86.5104 37.4084 86.6562 37.1851C86.8021 36.9618 86.9092 36.702 86.9775 36.4058C87.0505 36.1095 87.0869 35.7951 87.0869 35.4624V35.3052C87.0869 34.9771 87.0505 34.6672 86.9775 34.3755C86.9092 34.0793 86.7998 33.8172 86.6494 33.5894C86.5036 33.3615 86.3167 33.1838 86.0889 33.0562C85.8656 32.924 85.599 32.8579 85.2891 32.8579C84.9792 32.8579 84.7103 32.924 84.4824 33.0562C84.2591 33.1838 84.0745 33.3615 83.9287 33.5894C83.7829 33.8172 83.6758 34.0793 83.6074 34.3755C83.5391 34.6672 83.5049 34.9771 83.5049 35.3052ZM93.5059 31.6821V32.8853H89.3359V31.6821H93.5059ZM90.5391 29.8706H92.1865V37.0347C92.1865 37.2625 92.2184 37.438 92.2822 37.561C92.3506 37.6795 92.444 37.7593 92.5625 37.8003C92.681 37.8413 92.82 37.8618 92.9795 37.8618C93.0934 37.8618 93.2028 37.855 93.3076 37.8413C93.4124 37.8276 93.4967 37.814 93.5605 37.8003L93.5674 39.0581C93.4307 39.0991 93.2712 39.1356 93.0889 39.1675C92.9111 39.1994 92.7061 39.2153 92.4736 39.2153C92.0954 39.2153 91.7604 39.1493 91.4688 39.0171C91.1771 38.8804 90.9492 38.6593 90.7852 38.354C90.6211 38.0487 90.5391 37.6431 90.5391 37.1372V29.8706ZM102.434 37.5952V34.0679C102.434 33.8035 102.386 33.5757 102.29 33.3843C102.194 33.1929 102.049 33.0448 101.853 32.9399C101.661 32.8351 101.42 32.7827 101.128 32.7827C100.859 32.7827 100.627 32.8283 100.431 32.9194C100.235 33.0106 100.082 33.1336 99.9727 33.2886C99.8633 33.4435 99.8086 33.619 99.8086 33.8149H98.168C98.168 33.5233 98.2386 33.2407 98.3799 32.9673C98.5212 32.6938 98.7262 32.45 98.9951 32.2358C99.264 32.0216 99.5853 31.853 99.959 31.73C100.333 31.6069 100.752 31.5454 101.217 31.5454C101.773 31.5454 102.265 31.6388 102.693 31.8257C103.126 32.0125 103.466 32.2951 103.712 32.6733C103.963 33.047 104.088 33.5164 104.088 34.0815V37.3696C104.088 37.7069 104.111 38.0099 104.156 38.2788C104.206 38.5431 104.277 38.7733 104.368 38.9692V39.0786H102.68C102.602 38.9009 102.541 38.6753 102.495 38.4019C102.454 38.1239 102.434 37.855 102.434 37.5952ZM102.673 34.5806L102.687 35.5991H101.504C101.199 35.5991 100.93 35.6287 100.697 35.688C100.465 35.7427 100.271 35.8247 100.116 35.9341C99.9613 36.0435 99.8451 36.1756 99.7676 36.3306C99.6901 36.4855 99.6514 36.661 99.6514 36.8569C99.6514 37.0529 99.6969 37.2329 99.7881 37.397C99.8792 37.5565 100.011 37.6818 100.185 37.7729C100.362 37.8641 100.576 37.9097 100.827 37.9097C101.164 37.9097 101.458 37.8413 101.709 37.7046C101.964 37.5633 102.165 37.3924 102.311 37.1919C102.456 36.9868 102.534 36.7931 102.543 36.6108L103.076 37.3423C103.021 37.5291 102.928 37.7297 102.796 37.9438C102.664 38.158 102.491 38.3631 102.276 38.5591C102.067 38.7505 101.814 38.9077 101.518 39.0308C101.226 39.1538 100.889 39.2153 100.506 39.2153C100.023 39.2153 99.5921 39.1196 99.2139 38.9282C98.8356 38.7323 98.5394 38.4702 98.3252 38.1421C98.111 37.8094 98.0039 37.4334 98.0039 37.0142C98.0039 36.6222 98.0768 36.2759 98.2227 35.9751C98.373 35.6698 98.5918 35.4146 98.8789 35.2095C99.1706 35.0044 99.526 34.8494 99.9453 34.7446C100.365 34.6353 100.843 34.5806 101.381 34.5806H102.673ZM110.951 33.0903V39.0786H109.304V31.6821H110.876L110.951 33.0903ZM113.214 31.6343L113.2 33.1655C113.1 33.1473 112.991 33.1336 112.872 33.1245C112.758 33.1154 112.644 33.1108 112.53 33.1108C112.248 33.1108 111.999 33.1519 111.785 33.2339C111.571 33.3114 111.391 33.4253 111.245 33.5757C111.104 33.7215 110.994 33.8993 110.917 34.1089C110.84 34.3185 110.794 34.5532 110.78 34.813L110.404 34.8403C110.404 34.3755 110.45 33.9448 110.541 33.5483C110.632 33.1519 110.769 32.8032 110.951 32.5024C111.138 32.2017 111.37 31.967 111.648 31.7983C111.931 31.6297 112.257 31.5454 112.626 31.5454C112.726 31.5454 112.833 31.5545 112.947 31.5728C113.066 31.591 113.155 31.6115 113.214 31.6343ZM113.754 35.4624V35.3052C113.754 34.772 113.831 34.2775 113.986 33.8218C114.141 33.3615 114.365 32.9627 114.656 32.6255C114.952 32.2837 115.312 32.0194 115.736 31.8325C116.165 31.6411 116.648 31.5454 117.186 31.5454C117.728 31.5454 118.211 31.6411 118.635 31.8325C119.063 32.0194 119.425 32.2837 119.722 32.6255C120.018 32.9627 120.243 33.3615 120.398 33.8218C120.553 34.2775 120.631 34.772 120.631 35.3052V35.4624C120.631 35.9956 120.553 36.4901 120.398 36.9458C120.243 37.4015 120.018 37.8003 119.722 38.1421C119.425 38.4793 119.065 38.7437 118.642 38.9351C118.218 39.1219 117.737 39.2153 117.199 39.2153C116.657 39.2153 116.172 39.1219 115.743 38.9351C115.319 38.7437 114.959 38.4793 114.663 38.1421C114.367 37.8003 114.141 37.4015 113.986 36.9458C113.831 36.4901 113.754 35.9956 113.754 35.4624ZM115.401 35.3052V35.4624C115.401 35.7951 115.436 36.1095 115.504 36.4058C115.572 36.702 115.679 36.9618 115.825 37.1851C115.971 37.4084 116.158 37.5838 116.386 37.7114C116.614 37.839 116.885 37.9028 117.199 37.9028C117.505 37.9028 117.769 37.839 117.992 37.7114C118.22 37.5838 118.407 37.4084 118.553 37.1851C118.699 36.9618 118.806 36.702 118.874 36.4058C118.947 36.1095 118.983 35.7951 118.983 35.4624V35.3052C118.983 34.9771 118.947 34.6672 118.874 34.3755C118.806 34.0793 118.696 33.8172 118.546 33.5894C118.4 33.3615 118.213 33.1838 117.985 33.0562C117.762 32.924 117.495 32.8579 117.186 32.8579C116.876 32.8579 116.607 32.924 116.379 33.0562C116.156 33.1838 115.971 33.3615 115.825 33.5894C115.679 33.8172 115.572 34.0793 115.504 34.3755C115.436 34.6672 115.401 34.9771 115.401 35.3052ZM122.019 28.5786H123.666V37.4995L123.509 39.0786H122.019V28.5786ZM128.492 35.312V35.4556C128.492 36.0024 128.431 36.506 128.308 36.9663C128.189 37.422 128.007 37.8185 127.761 38.1558C127.519 38.493 127.218 38.755 126.858 38.9419C126.503 39.1242 126.09 39.2153 125.621 39.2153C125.161 39.2153 124.76 39.1287 124.418 38.9556C124.076 38.7824 123.789 38.5363 123.557 38.2173C123.329 37.8983 123.144 37.5177 123.003 37.0757C122.862 36.6336 122.761 36.146 122.702 35.6128V35.1548C122.761 34.617 122.862 34.1294 123.003 33.6919C123.144 33.2498 123.329 32.8693 123.557 32.5503C123.789 32.2267 124.074 31.9784 124.411 31.8052C124.753 31.632 125.152 31.5454 125.607 31.5454C126.081 31.5454 126.498 31.6366 126.858 31.8188C127.223 32.0011 127.526 32.2609 127.768 32.5981C128.009 32.9308 128.189 33.3273 128.308 33.7876C128.431 34.2479 128.492 34.756 128.492 35.312ZM126.845 35.4556V35.312C126.845 34.9793 126.817 34.6672 126.763 34.3755C126.708 34.0793 126.617 33.8195 126.489 33.5962C126.366 33.3729 126.198 33.1974 125.983 33.0698C125.774 32.9377 125.512 32.8716 125.197 32.8716C124.906 32.8716 124.655 32.9217 124.445 33.022C124.236 33.1222 124.06 33.259 123.919 33.4321C123.778 33.6053 123.666 33.8058 123.584 34.0337C123.507 34.2616 123.454 34.5076 123.427 34.772V36.0093C123.468 36.3511 123.554 36.6655 123.687 36.9526C123.823 37.2352 124.015 37.4631 124.261 37.6362C124.507 37.8049 124.824 37.8892 125.211 37.8892C125.516 37.8892 125.774 37.8276 125.983 37.7046C126.193 37.5815 126.359 37.4106 126.482 37.1919C126.61 36.9686 126.701 36.7088 126.756 36.4126C126.815 36.1164 126.845 35.7974 126.845 35.4556ZM129.572 35.4624V35.3052C129.572 34.772 129.65 34.2775 129.805 33.8218C129.96 33.3615 130.183 32.9627 130.475 32.6255C130.771 32.2837 131.131 32.0194 131.555 31.8325C131.983 31.6411 132.466 31.5454 133.004 31.5454C133.546 31.5454 134.029 31.6411 134.453 31.8325C134.882 32.0194 135.244 32.2837 135.54 32.6255C135.836 32.9627 136.062 33.3615 136.217 33.8218C136.372 34.2775 136.449 34.772 136.449 35.3052V35.4624C136.449 35.9956 136.372 36.4901 136.217 36.9458C136.062 37.4015 135.836 37.8003 135.54 38.1421C135.244 38.4793 134.884 38.7437 134.46 38.9351C134.036 39.1219 133.555 39.2153 133.018 39.2153C132.475 39.2153 131.99 39.1219 131.562 38.9351C131.138 38.7437 130.778 38.4793 130.481 38.1421C130.185 37.8003 129.96 37.4015 129.805 36.9458C129.65 36.4901 129.572 35.9956 129.572 35.4624ZM131.22 35.3052V35.4624C131.22 35.7951 131.254 36.1095 131.322 36.4058C131.391 36.702 131.498 36.9618 131.644 37.1851C131.789 37.4084 131.976 37.5838 132.204 37.7114C132.432 37.839 132.703 37.9028 133.018 37.9028C133.323 37.9028 133.587 37.839 133.811 37.7114C134.038 37.5838 134.225 37.4084 134.371 37.1851C134.517 36.9618 134.624 36.702 134.692 36.4058C134.765 36.1095 134.802 35.7951 134.802 35.4624V35.3052C134.802 34.9771 134.765 34.6672 134.692 34.3755C134.624 34.0793 134.515 33.8172 134.364 33.5894C134.218 33.3615 134.032 33.1838 133.804 33.0562C133.58 32.924 133.314 32.8579 133.004 32.8579C132.694 32.8579 132.425 32.924 132.197 33.0562C131.974 33.1838 131.789 33.3615 131.644 33.5894C131.498 33.8172 131.391 34.0793 131.322 34.3755C131.254 34.6672 131.22 34.9771 131.22 35.3052ZM141.221 31.6821V32.8853H137.051V31.6821H141.221ZM138.254 29.8706H139.901V37.0347C139.901 37.2625 139.933 37.438 139.997 37.561C140.065 37.6795 140.159 37.7593 140.277 37.8003C140.396 37.8413 140.535 37.8618 140.694 37.8618C140.808 37.8618 140.918 37.855 141.022 37.8413C141.127 37.8276 141.212 37.814 141.275 37.8003L141.282 39.0581C141.146 39.0991 140.986 39.1356 140.804 39.1675C140.626 39.1994 140.421 39.2153 140.188 39.2153C139.81 39.2153 139.475 39.1493 139.184 39.0171C138.892 38.8804 138.664 38.6593 138.5 38.354C138.336 38.0487 138.254 37.6431 138.254 37.1372V29.8706Z" fill="black"/>
<path d="M259.306 20.791C259.305 20.5661 259.3 20.3424 259.29 20.1198V7.42987L255.782 10.9381C252.91 7.42353 248.543 5.17871 243.65 5.17871C238.558 5.17871 234.035 7.609 231.176 11.3727L236.926 17.1836C237.49 16.1414 238.29 15.2462 239.256 14.5701C240.26 13.7867 241.682 13.1461 243.65 13.1461C243.887 13.1461 244.071 13.1739 244.206 13.2262C246.644 13.4186 248.757 14.7641 250.001 16.717L245.931 20.7874C251.087 20.7672 256.911 20.7553 259.306 20.79" fill="#1C3AA9"/>
<path d="M243.559 5.1792C243.334 5.17995 243.11 5.18514 242.887 5.19522H230.197L233.706 8.70347C230.191 11.5748 227.946 15.9428 227.946 20.8353C227.946 25.9268 230.377 30.4501 234.14 33.3095L239.951 27.559C238.909 26.9955 238.014 26.1949 237.338 25.2296C236.554 24.2257 235.914 22.8032 235.914 20.8355C235.914 20.5978 235.941 20.4143 235.994 20.2795C236.186 17.8415 237.532 15.7282 239.485 14.4839L243.555 18.5543C243.535 13.3986 243.523 7.57421 243.558 5.17965" fill="#4285F4"/>
<path d="M227.947 20.835C227.948 21.0598 227.953 21.2835 227.963 21.5061V34.196L231.471 30.6878C234.342 34.2024 238.71 36.4472 243.603 36.4472C248.694 36.4472 253.218 34.0169 256.077 30.2532L250.327 24.4423C249.763 25.4845 248.962 26.3797 247.997 27.0558C246.993 27.8393 245.571 28.4798 243.603 28.4798C243.365 28.4798 243.182 28.452 243.047 28.3997C240.609 28.2073 238.496 26.8618 237.251 24.9089L241.322 20.8385C236.166 20.8587 230.342 20.8706 227.947 20.8359" fill="#ABABAB"/>
<path d="M230.589 42.5103C230.207 42.5103 229.865 42.5827 229.563 42.7273C229.26 42.8687 229.004 43.0709 228.794 43.3339C228.586 43.5969 228.427 43.9158 228.315 44.2905C228.207 44.662 228.152 45.0779 228.152 45.5381V46.8647C228.152 47.3282 228.207 47.7457 228.315 48.1172C228.427 48.4887 228.585 48.806 228.789 49.069C228.992 49.332 229.239 49.5342 229.528 49.6755C229.818 49.8169 230.143 49.8876 230.505 49.8876C230.876 49.8876 231.202 49.8333 231.481 49.7249C231.764 49.6164 232.001 49.4602 232.191 49.2564C232.382 49.0493 232.528 48.7994 232.63 48.5068C232.735 48.2142 232.798 47.8822 232.818 47.5107H231.905C231.882 47.7967 231.843 48.0416 231.787 48.2454C231.731 48.446 231.649 48.612 231.54 48.7435C231.435 48.8717 231.297 48.9671 231.126 49.0295C230.958 49.0887 230.751 49.1183 230.505 49.1183C230.242 49.1183 230.018 49.0608 229.834 48.9457C229.65 48.8273 229.5 48.6662 229.385 48.4624C229.274 48.2586 229.191 48.0202 229.139 47.7474C229.089 47.4745 229.065 47.1803 229.065 46.8647V45.5283C229.065 45.1897 229.094 44.8823 229.154 44.6061C229.216 44.3299 229.31 44.0949 229.435 43.9009C229.56 43.7069 229.717 43.5574 229.908 43.4522C230.099 43.3437 230.326 43.2894 230.589 43.2894C230.809 43.2894 230.998 43.3223 231.156 43.3881C231.313 43.4505 231.445 43.5492 231.55 43.6839C231.655 43.8154 231.736 43.9831 231.792 44.1869C231.848 44.3908 231.885 44.634 231.905 44.9168H232.818C232.801 44.5288 232.74 44.1853 232.635 43.8861C232.53 43.5869 232.384 43.3354 232.196 43.1316C232.009 42.9278 231.78 42.7732 231.511 42.6681C231.244 42.5629 230.937 42.5103 230.589 42.5103L230.589 42.5103ZM252.859 42.5103C252.477 42.5103 252.135 42.5827 251.833 42.7273C251.53 42.8687 251.274 43.0709 251.064 43.3339C250.856 43.5969 250.697 43.9158 250.585 44.2905C250.477 44.662 250.423 45.0779 250.423 45.5381V46.8647C250.423 47.3282 250.477 47.7457 250.585 48.1172C250.697 48.4887 250.855 48.806 251.059 49.069C251.263 49.332 251.509 49.5342 251.798 49.6755C252.088 49.8169 252.413 49.8876 252.775 49.8876C253.146 49.8876 253.472 49.8333 253.751 49.7249C254.034 49.6164 254.271 49.4602 254.461 49.2564C254.652 49.0493 254.798 48.7994 254.9 48.5068C255.005 48.2142 255.068 47.8822 255.088 47.5107H254.175C254.152 47.7967 254.113 48.0416 254.057 48.2454C254.001 48.446 253.919 48.612 253.81 48.7435C253.705 48.8717 253.567 48.9671 253.396 49.0295C253.228 49.0887 253.021 49.1183 252.775 49.1183C252.512 49.1183 252.288 49.0608 252.104 48.9457C251.92 48.8273 251.77 48.6662 251.655 48.4624C251.544 48.2586 251.461 48.0202 251.409 47.7474C251.36 47.4745 251.335 47.1803 251.335 46.8647V45.5283C251.335 45.1897 251.364 44.8823 251.424 44.6061C251.486 44.3299 251.58 44.0949 251.705 43.9009C251.83 43.7069 251.987 43.5574 252.178 43.4522C252.369 43.3437 252.596 43.2894 252.859 43.2894C253.079 43.2894 253.268 43.3223 253.426 43.3881C253.584 43.4505 253.715 43.5492 253.82 43.6839C253.925 43.8154 254.006 43.9831 254.062 44.1869C254.118 44.3908 254.156 44.634 254.175 44.9168H255.088C255.071 44.5288 255.01 44.1853 254.905 43.8861C254.8 43.5869 254.654 43.3354 254.466 43.1316C254.279 42.9277 254.05 42.7732 253.781 42.6681C253.514 42.5629 253.207 42.5103 252.859 42.5103L252.859 42.5103ZM235.786 42.609L233.474 49.7889H234.401L234.958 47.915H237.384L237.951 49.7889H238.878L236.561 42.609H235.786ZM239.855 42.609V49.7889H240.757V46.9781H242.143C242.488 46.9781 242.794 46.9304 243.06 46.835C243.326 46.7364 243.55 46.5951 243.731 46.4109C243.915 46.2268 244.053 46 244.145 45.7304C244.24 45.4576 244.288 45.1485 244.288 44.8033C244.288 44.4844 244.24 44.1918 244.145 43.9255C244.053 43.656 243.916 43.4242 243.736 43.2302C243.555 43.033 243.33 42.8801 243.06 42.7716C242.794 42.6631 242.488 42.6089 242.143 42.6089L239.855 42.609ZM244.978 42.609V43.3881H246.862V49.7889H247.764V43.3881H249.653V42.609H244.978ZM256.306 42.609V49.7889H257.208V46.4701H260.098V49.7889H261.005V42.609H260.098V45.696H257.208V42.609H256.306ZM264.427 42.609L262.115 49.7889H263.042L263.599 47.915H266.025L266.592 49.7889H267.519L265.202 42.609H264.427ZM240.757 43.3881H242.143C242.363 43.3881 242.55 43.4275 242.705 43.5065C242.863 43.5854 242.991 43.6906 243.09 43.8221C243.191 43.9536 243.265 44.1064 243.311 44.2807C243.361 44.4516 243.385 44.6291 243.385 44.8133C243.385 45.0171 243.361 45.2045 243.311 45.3754C243.265 45.5431 243.191 45.6894 243.09 45.8143C242.991 45.936 242.863 46.0313 242.705 46.1003C242.55 46.1694 242.363 46.2039 242.143 46.2039H240.757V43.3881ZM236.171 43.8714L237.152 47.1359H235.195L236.171 43.8714ZM264.812 43.8714L265.793 47.1359H263.836L264.812 43.8714ZM222.334 44.3547C222.107 44.3547 221.912 44.4122 221.747 44.5273C221.586 44.6423 221.451 44.7985 221.343 44.9957L221.328 44.4533H220.48V49.789H221.353V45.972C221.435 45.7451 221.552 45.566 221.703 45.4345C221.857 45.303 222.053 45.2372 222.29 45.2372C222.365 45.2372 222.433 45.2406 222.492 45.2471C222.551 45.2504 222.615 45.2586 222.684 45.2717L222.679 44.4235C222.666 44.4169 222.645 44.4104 222.615 44.4038C222.589 44.3939 222.559 44.3857 222.527 44.3792C222.494 44.3726 222.459 44.3676 222.423 44.3643C222.39 44.3578 222.36 44.3545 222.334 44.3545L222.334 44.3547ZM225.268 44.3547C225.015 44.3547 224.77 44.3991 224.534 44.4878C224.297 44.5766 224.086 44.7229 223.902 44.9267C223.722 45.1273 223.575 45.3902 223.463 45.7157C223.352 46.0379 223.296 46.434 223.296 46.9042V47.5058C223.296 47.9135 223.343 48.2669 223.439 48.566C223.534 48.8652 223.671 49.1134 223.848 49.3107C224.029 49.5047 224.248 49.6493 224.504 49.7447C224.76 49.84 225.048 49.8877 225.367 49.8877C225.597 49.8877 225.803 49.8646 225.983 49.8186C226.167 49.7726 226.33 49.7134 226.472 49.6411C226.613 49.5655 226.735 49.48 226.836 49.3847C226.938 49.2893 227.026 49.1907 227.098 49.0888L226.644 48.5365C226.572 48.6252 226.495 48.7074 226.412 48.783C226.33 48.8554 226.24 48.9195 226.141 48.9754C226.043 49.028 225.934 49.0691 225.816 49.0987C225.697 49.1282 225.564 49.143 225.416 49.143C225.012 49.143 224.701 49.0132 224.484 48.7535C224.271 48.4937 224.164 48.0779 224.164 47.5058V47.3825H227.142V46.8746C227.142 46.467 227.108 46.107 227.039 45.7946C226.97 45.4823 226.86 45.2193 226.708 45.0056C226.557 44.7919 226.363 44.6308 226.126 44.5223C225.89 44.4106 225.604 44.3547 225.268 44.3547L225.268 44.3547ZM225.268 45.1043C225.459 45.1043 225.617 45.1388 225.742 45.2078C225.867 45.2768 225.965 45.3738 226.038 45.4988C226.113 45.6237 226.167 45.7733 226.2 45.9475C226.236 46.1185 226.26 46.3075 226.269 46.5146V46.6329H224.169C224.182 46.3338 224.218 46.0856 224.277 45.8883C224.336 45.691 224.414 45.5349 224.509 45.4198C224.608 45.3015 224.721 45.2193 224.849 45.1733C224.977 45.1272 225.117 45.1042 225.268 45.1042L225.268 45.1043Z" fill="#A6A6A6"/>
<path d="M218.98 59.4575H217.5V58.6802H218.98C219.238 58.6802 219.447 58.6385 219.605 58.5552C219.764 58.4718 219.88 58.3573 219.953 58.2114C220.029 58.063 220.066 57.8937 220.066 57.7036C220.066 57.5239 220.029 57.356 219.953 57.1997C219.88 57.0409 219.764 56.9132 219.605 56.8169C219.447 56.7205 219.238 56.6724 218.98 56.6724H217.801V61.5786H216.82V55.8911H218.98C219.421 55.8911 219.794 55.9692 220.102 56.1255C220.411 56.2791 220.647 56.4927 220.809 56.7661C220.97 57.0369 221.051 57.3468 221.051 57.6958C221.051 58.063 220.97 58.3781 220.809 58.6411C220.647 58.9041 220.411 59.106 220.102 59.2466C219.794 59.3872 219.421 59.4575 218.98 59.4575ZM222.781 58.1567V61.5786H221.84V57.3521H222.738L222.781 58.1567ZM224.074 57.3247L224.066 58.1997C224.009 58.1893 223.947 58.1815 223.879 58.1763C223.814 58.1711 223.749 58.1685 223.684 58.1685C223.522 58.1685 223.38 58.1919 223.258 58.2388C223.135 58.283 223.033 58.3481 222.949 58.4341C222.868 58.5174 222.806 58.619 222.762 58.7388C222.717 58.8586 222.691 58.9927 222.684 59.1411L222.469 59.1567C222.469 58.8911 222.495 58.645 222.547 58.4185C222.599 58.1919 222.677 57.9927 222.781 57.8208C222.888 57.6489 223.021 57.5148 223.18 57.4185C223.341 57.3221 223.527 57.2739 223.738 57.2739C223.796 57.2739 223.857 57.2791 223.922 57.2896C223.99 57.3 224.04 57.3117 224.074 57.3247ZM225.672 57.3521V61.5786H224.727V57.3521H225.672ZM224.664 56.2427C224.664 56.0994 224.711 55.981 224.805 55.8872C224.901 55.7909 225.034 55.7427 225.203 55.7427C225.37 55.7427 225.501 55.7909 225.598 55.8872C225.694 55.981 225.742 56.0994 225.742 56.2427C225.742 56.3833 225.694 56.5005 225.598 56.5942C225.501 56.688 225.37 56.7349 225.203 56.7349C225.034 56.7349 224.901 56.688 224.805 56.5942C224.711 56.5005 224.664 56.3833 224.664 56.2427ZM228.078 60.8325L229.113 57.3521H230.09L228.621 61.5786H228.012L228.078 60.8325ZM227.285 57.3521L228.34 60.8481L228.391 61.5786H227.781L226.305 57.3521H227.285ZM232.992 60.731V58.7153C232.992 58.5643 232.965 58.4341 232.91 58.3247C232.855 58.2153 232.772 58.1307 232.66 58.0708C232.551 58.0109 232.413 57.981 232.246 57.981C232.092 57.981 231.96 58.007 231.848 58.0591C231.736 58.1112 231.648 58.1815 231.586 58.27C231.523 58.3586 231.492 58.4588 231.492 58.5708H230.555C230.555 58.4041 230.595 58.2427 230.676 58.0864C230.757 57.9302 230.874 57.7909 231.027 57.6685C231.181 57.5461 231.365 57.4497 231.578 57.3794C231.792 57.3091 232.031 57.2739 232.297 57.2739C232.615 57.2739 232.896 57.3273 233.141 57.4341C233.388 57.5409 233.582 57.7023 233.723 57.9185C233.866 58.132 233.938 58.4002 233.938 58.7231V60.6021C233.938 60.7948 233.951 60.9679 233.977 61.1216C234.005 61.2726 234.046 61.4041 234.098 61.5161V61.5786H233.133C233.089 61.4771 233.053 61.3481 233.027 61.1919C233.004 61.033 232.992 60.8794 232.992 60.731ZM233.129 59.0083L233.137 59.5903H232.461C232.286 59.5903 232.133 59.6073 232 59.6411C231.867 59.6724 231.757 59.7192 231.668 59.7817C231.579 59.8442 231.513 59.9198 231.469 60.0083C231.424 60.0968 231.402 60.1971 231.402 60.3091C231.402 60.4211 231.428 60.5239 231.48 60.6177C231.533 60.7088 231.608 60.7804 231.707 60.8325C231.809 60.8846 231.931 60.9106 232.074 60.9106C232.267 60.9106 232.435 60.8716 232.578 60.7935C232.724 60.7127 232.839 60.6151 232.922 60.5005C233.005 60.3833 233.049 60.2726 233.055 60.1685L233.359 60.5864C233.328 60.6932 233.275 60.8078 233.199 60.9302C233.124 61.0526 233.025 61.1698 232.902 61.2817C232.783 61.3911 232.638 61.481 232.469 61.5513C232.302 61.6216 232.109 61.6567 231.891 61.6567C231.615 61.6567 231.368 61.6021 231.152 61.4927C230.936 61.3807 230.767 61.231 230.645 61.0435C230.522 60.8534 230.461 60.6385 230.461 60.3989C230.461 60.175 230.503 59.9771 230.586 59.8052C230.672 59.6307 230.797 59.4849 230.961 59.3677C231.128 59.2505 231.331 59.1619 231.57 59.1021C231.81 59.0396 232.083 59.0083 232.391 59.0083H233.129ZM236.648 60.9067C236.802 60.9067 236.94 60.8768 237.062 60.8169C237.188 60.7544 237.288 60.6685 237.363 60.5591C237.441 60.4497 237.484 60.3234 237.492 60.1802H238.379C238.374 60.4536 238.293 60.7023 238.137 60.9263C237.98 61.1502 237.773 61.3286 237.516 61.4614C237.258 61.5916 236.973 61.6567 236.66 61.6567C236.337 61.6567 236.056 61.6021 235.816 61.4927C235.577 61.3807 235.378 61.2271 235.219 61.0317C235.06 60.8364 234.94 60.6112 234.859 60.356C234.781 60.1007 234.742 59.8273 234.742 59.5356V59.3989C234.742 59.1073 234.781 58.8338 234.859 58.5786C234.94 58.3208 235.06 58.0942 235.219 57.8989C235.378 57.7036 235.577 57.5513 235.816 57.4419C236.056 57.3299 236.336 57.2739 236.656 57.2739C236.995 57.2739 237.292 57.3416 237.547 57.4771C237.802 57.6099 238.003 57.7961 238.148 58.0356C238.297 58.2726 238.374 58.5487 238.379 58.8638H237.492C237.484 58.7075 237.445 58.5669 237.375 58.4419C237.307 58.3143 237.211 58.2127 237.086 58.1372C236.964 58.0617 236.816 58.0239 236.645 58.0239C236.454 58.0239 236.297 58.063 236.172 58.1411C236.047 58.2166 235.949 58.3208 235.879 58.4536C235.809 58.5838 235.758 58.731 235.727 58.895C235.698 59.0565 235.684 59.2244 235.684 59.3989V59.5356C235.684 59.7101 235.698 59.8794 235.727 60.0435C235.755 60.2075 235.805 60.3547 235.875 60.4849C235.948 60.6125 236.047 60.7153 236.172 60.7935C236.297 60.869 236.456 60.9067 236.648 60.9067ZM240.328 61.1177L241.477 57.3521H242.484L240.789 62.2231C240.75 62.3273 240.699 62.4406 240.637 62.563C240.574 62.6854 240.492 62.8013 240.391 62.9106C240.292 63.0226 240.168 63.1125 240.02 63.1802C239.871 63.2505 239.691 63.2856 239.48 63.2856C239.397 63.2856 239.316 63.2778 239.238 63.2622C239.163 63.2492 239.091 63.2349 239.023 63.2192L239.02 62.5005C239.046 62.5031 239.077 62.5057 239.113 62.5083C239.152 62.5109 239.184 62.5122 239.207 62.5122C239.363 62.5122 239.493 62.4927 239.598 62.4536C239.702 62.4172 239.786 62.3573 239.852 62.2739C239.919 62.1906 239.977 62.0786 240.023 61.938L240.328 61.1177ZM239.68 57.3521L240.684 60.5161L240.852 61.5083L240.199 61.6763L238.664 57.3521H239.68ZM246.91 58.7739V59.5239H244.844V58.7739H246.91ZM251.973 55.8911V61.5786H251V55.8911H251.973ZM253.758 55.8911V56.6724H249.23V55.8911H253.758ZM255.902 61.6567C255.59 61.6567 255.307 61.606 255.055 61.5044C254.805 61.4002 254.591 61.2557 254.414 61.0708C254.24 60.8859 254.105 60.6685 254.012 60.4185C253.918 60.1685 253.871 59.8989 253.871 59.6099V59.4536C253.871 59.1229 253.919 58.8234 254.016 58.5552C254.112 58.2869 254.246 58.0578 254.418 57.8677C254.59 57.675 254.793 57.5278 255.027 57.4263C255.262 57.3247 255.516 57.2739 255.789 57.2739C256.091 57.2739 256.355 57.3247 256.582 57.4263C256.809 57.5278 256.996 57.6711 257.145 57.856C257.296 58.0382 257.408 58.2557 257.48 58.5083C257.556 58.7609 257.594 59.0396 257.594 59.3442V59.7466H254.328V59.0708H256.664V58.9966C256.659 58.8273 256.625 58.6685 256.562 58.52C256.503 58.3716 256.41 58.2518 256.285 58.1606C256.16 58.0695 255.993 58.0239 255.785 58.0239C255.629 58.0239 255.49 58.0578 255.367 58.1255C255.247 58.1906 255.147 58.2856 255.066 58.4106C254.986 58.5356 254.923 58.6867 254.879 58.8638C254.837 59.0382 254.816 59.2349 254.816 59.4536V59.6099C254.816 59.7948 254.841 59.9666 254.891 60.1255C254.943 60.2817 255.018 60.4185 255.117 60.5356C255.216 60.6528 255.336 60.7453 255.477 60.813C255.617 60.8781 255.777 60.9106 255.957 60.9106C256.184 60.9106 256.385 60.8651 256.562 60.7739C256.74 60.6828 256.893 60.5539 257.023 60.3872L257.52 60.8677C257.428 61.0005 257.31 61.1281 257.164 61.2505C257.018 61.3703 256.84 61.4679 256.629 61.5435C256.421 61.619 256.178 61.6567 255.902 61.6567ZM259.273 58.1567V61.5786H258.332V57.3521H259.23L259.273 58.1567ZM260.566 57.3247L260.559 58.1997C260.501 58.1893 260.439 58.1815 260.371 58.1763C260.306 58.1711 260.241 58.1685 260.176 58.1685C260.014 58.1685 259.872 58.1919 259.75 58.2388C259.628 58.283 259.525 58.3481 259.441 58.4341C259.361 58.5174 259.298 58.619 259.254 58.7388C259.21 58.8586 259.184 58.9927 259.176 59.1411L258.961 59.1567C258.961 58.8911 258.987 58.645 259.039 58.4185C259.091 58.1919 259.169 57.9927 259.273 57.8208C259.38 57.6489 259.513 57.5148 259.672 57.4185C259.833 57.3221 260.02 57.2739 260.23 57.2739C260.288 57.2739 260.349 57.2791 260.414 57.2896C260.482 57.3 260.533 57.3117 260.566 57.3247ZM262.098 58.2114V61.5786H261.156V57.3521H262.043L262.098 58.2114ZM261.945 59.3091L261.625 59.3052C261.625 59.0135 261.661 58.744 261.734 58.4966C261.807 58.2492 261.914 58.0343 262.055 57.8521C262.195 57.6672 262.37 57.5252 262.578 57.4263C262.789 57.3247 263.033 57.2739 263.309 57.2739C263.501 57.2739 263.677 57.3026 263.836 57.3599C263.997 57.4146 264.137 57.5018 264.254 57.6216C264.374 57.7414 264.465 57.895 264.527 58.0825C264.592 58.27 264.625 58.4966 264.625 58.7622V61.5786H263.684V58.8442C263.684 58.6385 263.652 58.4771 263.59 58.3599C263.53 58.2427 263.443 58.1593 263.328 58.1099C263.216 58.0578 263.082 58.0317 262.926 58.0317C262.749 58.0317 262.598 58.0656 262.473 58.1333C262.35 58.201 262.25 58.2935 262.172 58.4106C262.094 58.5278 262.036 58.6632 262 58.8169C261.964 58.9705 261.945 59.1346 261.945 59.3091ZM264.566 59.0591L264.125 59.1567C264.125 58.9015 264.16 58.6606 264.23 58.4341C264.303 58.2049 264.409 58.0044 264.547 57.8325C264.688 57.658 264.861 57.5213 265.066 57.4224C265.272 57.3234 265.508 57.2739 265.773 57.2739C265.99 57.2739 266.182 57.3039 266.352 57.3638C266.523 57.4211 266.669 57.5122 266.789 57.6372C266.909 57.7622 267 57.925 267.062 58.1255C267.125 58.3234 267.156 58.563 267.156 58.8442V61.5786H266.211V58.8403C266.211 58.6268 266.18 58.4614 266.117 58.3442C266.057 58.2271 265.971 58.1463 265.859 58.1021C265.747 58.0552 265.613 58.0317 265.457 58.0317C265.311 58.0317 265.182 58.0591 265.07 58.1138C264.961 58.1659 264.868 58.2401 264.793 58.3364C264.717 58.4302 264.66 58.5382 264.621 58.6606C264.585 58.783 264.566 58.9159 264.566 59.0591ZM270.496 60.4341C270.496 60.3403 270.473 60.2557 270.426 60.1802C270.379 60.1021 270.289 60.0317 270.156 59.9692C270.026 59.9067 269.833 59.8494 269.578 59.7974C269.354 59.7479 269.148 59.6893 268.961 59.6216C268.776 59.5513 268.617 59.4666 268.484 59.3677C268.352 59.2687 268.249 59.1515 268.176 59.0161C268.103 58.8807 268.066 58.7244 268.066 58.5474C268.066 58.3755 268.104 58.2127 268.18 58.0591C268.255 57.9054 268.363 57.77 268.504 57.6528C268.645 57.5356 268.815 57.4432 269.016 57.3755C269.219 57.3078 269.445 57.2739 269.695 57.2739C270.049 57.2739 270.353 57.3338 270.605 57.4536C270.861 57.5708 271.056 57.731 271.191 57.9341C271.327 58.1346 271.395 58.3612 271.395 58.6138H270.453C270.453 58.5018 270.424 58.3976 270.367 58.3013C270.312 58.2023 270.229 58.1229 270.117 58.063C270.005 58.0005 269.865 57.9692 269.695 57.9692C269.534 57.9692 269.4 57.9953 269.293 58.0474C269.189 58.0968 269.111 58.1619 269.059 58.2427C269.009 58.3234 268.984 58.4119 268.984 58.5083C268.984 58.5786 268.997 58.6424 269.023 58.6997C269.052 58.7544 269.099 58.8052 269.164 58.8521C269.229 58.8963 269.318 58.938 269.43 58.9771C269.544 59.0161 269.688 59.0539 269.859 59.0903C270.182 59.158 270.46 59.2453 270.691 59.3521C270.926 59.4562 271.105 59.5916 271.23 59.7583C271.355 59.9224 271.418 60.1307 271.418 60.3833C271.418 60.5708 271.378 60.7427 271.297 60.8989C271.219 61.0526 271.104 61.1867 270.953 61.3013C270.802 61.4132 270.621 61.5005 270.41 61.563C270.202 61.6255 269.967 61.6567 269.707 61.6567C269.324 61.6567 269 61.589 268.734 61.4536C268.469 61.3156 268.267 61.1398 268.129 60.9263C267.993 60.7101 267.926 60.4862 267.926 60.2544H268.836C268.846 60.4289 268.895 60.5682 268.98 60.6724C269.069 60.7739 269.178 60.8481 269.309 60.895C269.441 60.9393 269.578 60.9614 269.719 60.9614C269.888 60.9614 270.03 60.9393 270.145 60.895C270.259 60.8481 270.346 60.7856 270.406 60.7075C270.466 60.6268 270.496 60.5356 270.496 60.4341Z" fill="#A6A6A6"/>
</g>
<defs>
<filter id="filter0_d_2193_1701" x="0" y="0.578613" width="285" height="69" filterUnits="userSpaceOnUse" color-interpolation-filters="sRGB">
<feFlood flood-opacity="0" result="BackgroundImageFix"/>
<feColorMatrix in="SourceAlpha" type="matrix" values="0 0 0 0 0 0 0 0 0 0 0 0 0 0 0 0 0 0 127 0" result="hardAlpha"/>
<feOffset dy="1"/>
<feGaussianBlur stdDeviation="1"/>
<feColorMatrix type="matrix" values="0 0 0 0 0 0 0 0 0 0 0 0 0 0 0 0 0 0 0.1 0"/>
<feBlend mode="normal" in2="BackgroundImageFix" result="effect1_dropShadow_2193_1701"/>
<feBlend mode="normal" in="SourceGraphic" in2="effect1_dropShadow_2193_1701" result="shape"/>
</filter>
</defs>
</svg>
